<svg xmlns="http://www.w3.org/2000/svg" viewBox="0 0 800 800" fill="none" aria-hidden="true">
  <rect width="800" height="800" fill="#FCFAF6"/>
  <g opacity=".062" transform="translate(135 108) scale(4.55)">
  <defs>
    <mask id="pattern-v12" maskUnits="userSpaceOnUse" x="0" y="0" width="128" height="128">
      <rect width="128" height="128" fill="white"/>
      <path d="M26 24.5C42.2 39.2 49.8 52.2 63.3 62.3C77.6 72.7 87.5 87 102.5 103.4" fill="none" stroke="black" stroke-width="12.25" stroke-linecap="round"/>
      <path d="M21.7 99.7C39.5 88.5 48.5 75.5 61.8 68.2C79.8 58.5 89.4 39.4 106.3 27.8" fill="none" stroke="black" stroke-width="10.75" stroke-linecap="round"/>
    </mask>
  </defs>
  <circle cx="64" cy="64" r="49.5" fill="none" stroke="#082A2F" stroke-width="15.5" mask="url(#pattern-v12)"/>
  <path d="M21.7 99.7C39.5 88.5 48.5 75.5 61.8 68.2C79.8 58.5 89.4 39.4 106.3 27.8" fill="none" stroke="#0E7567" stroke-width="7.25" stroke-linecap="round"/>
  <circle cx="21.7" cy="99.7" r="4.6" fill="#C18A42"/>
</g>
  <g stroke="#0E7567" stroke-width="1.55" opacity=".095"><path d="M-82 706C150 598 270 405 438 306C590 217 696 72 906-48"/><path d="M-52 766C200 648 306 463 484 362C642 273 746 132 930 42"/></g>
  <g fill="#C18A42" opacity=".44"><circle cx="122" cy="614" r="4"/><circle cx="438" cy="306" r="4"/><circle cx="716" cy="104" r="4"/></g>
</svg>
