<svg xmlns="http://www.w3.org/2000/svg" viewBox="0 0 720 520"><rect width="720" height="520" fill="#F3EFE8"/><ellipse cx="360" cy="440" rx="150" ry="24" fill="#D8DEDB" opacity=".7"/><g transform="translate(245 70)"><rect x="35" y="40" width="160" height="325" rx="38" fill="#fff" stroke="#15343B" stroke-width="8"/><rect x="45" y="20" width="140" height="55" rx="16" fill="#15343B"/><rect x="57" y="122" width="116" height="138" rx="18" fill="#C47A4A"/><circle cx="115" cy="183" r="34" fill="#A63D40"/><path d="M93 155c8-22 33-22 43 0-12-6-31-6-43 0Z" fill="#3F6F68"/><rect x="70" y="282" width="90" height="15" rx="7" fill="#E8DFD0"/><rect x="82" y="310" width="66" height="12" rx="6" fill="#D8DEDB"/></g><circle cx="560" cy="145" r="64" fill="#E8DFD0"/><path d="M530 150c25-40 70-25 55 15-10 28-43 45-70 28-23-14-15-29 15-43Z" fill="#A63D40" opacity=".9"/></svg>